<?xml version="1.0" encoding="iso-8859-1"?>
<!-- Uploaded to: SVG Repo, www.svgrepo.com, Generator: SVG Repo Mixer Tools -->
<svg height="800px" width="800px" version="1.1" id="Layer_1" xmlns="http://www.w3.org/2000/svg" xmlns:xlink="http://www.w3.org/1999/xlink" 
	 viewBox="0 0 512 512" xml:space="preserve">
<path style="fill:#28C3E4;" d="M246.154,509.361L41.505,391.207c-6.093-3.517-9.846-10.018-9.846-17.054V137.846
	c0-7.035,3.753-13.536,9.846-17.054L246.154,2.639c6.093-3.518,13.6-3.518,19.692,0l204.649,118.154
	c6.093,3.517,9.846,10.018,9.846,17.054v236.308c0,7.035-3.753,13.536-9.846,17.054L265.846,509.361
	C259.755,512.88,252.247,512.88,246.154,509.361z"/>
<path style="fill:#28B6E4;" d="M470.495,120.793L265.846,2.639C262.8,0.88,259.4,0,256,0v512c3.4,0,6.8-0.88,9.846-2.639
	l204.649-118.154c6.093-3.517,9.846-10.018,9.846-17.054V137.846C480.341,130.811,476.588,124.31,470.495,120.793z"/>
<g>
	<path style="fill:#28D2E4;" d="M116.992,355.948c-10.875,0-19.692-8.817-19.692-19.692V175.745
		c0-10.875,8.817-19.692,19.692-19.692s19.692,8.817,19.692,19.692v160.512C136.684,347.132,127.867,355.948,116.992,355.948z"/>
	<path style="fill:#28D2E4;" d="M238.946,426.358c-5.438-9.418-2.211-21.462,7.207-26.9l139.008-80.257
		c9.418-5.439,21.462-2.211,26.9,7.207c5.438,9.418,2.211,21.462-7.207,26.9l-139.008,80.257
		C256.432,439.002,244.387,435.782,238.946,426.358z"/>
	<path style="fill:#28D2E4;" d="M385.162,192.798l-139.008-80.257c-9.418-5.438-12.645-17.482-7.207-26.9s17.48-12.648,26.9-7.207
		l139.008,80.257c9.418,5.438,12.645,17.482,7.207,26.9C406.623,195.012,394.575,198.235,385.162,192.798z"/>
</g>
<g>
	<path style="fill:#28C3E4;" d="M412.062,326.409c-5.438-9.418-17.482-12.646-26.9-7.207L256,393.774v42.416
		c3.348,0.004,6.74-0.83,9.846-2.623l139.008-80.257C414.272,347.871,417.499,335.829,412.062,326.409z"/>
	<path style="fill:#28C3E4;" d="M404.854,158.69L265.846,78.434c-3.107-1.795-6.5-2.627-9.846-2.624v42.416l129.162,74.572
		c9.413,5.436,21.461,2.215,26.9-7.207C417.499,176.171,414.272,164.129,404.854,158.69z"/>
</g>
</svg>